<svg width="24" height="24" viewBox="0 0 24 24" fill="none" xmlns="http://www.w3.org/2000/svg">
<path fill-rule="evenodd" clip-rule="evenodd" d="M14 4C15.1 4 16 4.9 16 6V8H18L20 12V18H19C19 16.3431 17.6569 15 16 15C14.3431 15 13 16.3431 13 18H11C11 16.3431 9.65685 15 8 15C6.43233 15 5.14571 16.2025 5.01172 17.7354C4.40902 17.3898 4 16.7409 4 16V6C4 4.9 4.9 4 6 4H14ZM16 9.5V11C16 12.1 16.9 13 18 13H18.5V12.3535L17.0732 9.5H16Z" fill="black"/>
<path d="M10 18C10 19.1046 9.10457 20 8 20C6.89543 20 6 19.1046 6 18C6 16.8954 6.89543 16 8 16C9.10457 16 10 16.8954 10 18Z" fill="black"/>
<path d="M18 18C18 19.1046 17.1046 20 16 20C14.8954 20 14 19.1046 14 18C14 16.8954 14.8954 16 16 16C17.1046 16 18 16.8954 18 18Z" fill="black"/>
</svg>
