<svg width="24" height="24" viewBox="0 0 24 24" fill="none" xmlns="http://www.w3.org/2000/svg">
<g clip-path="url(#clip0_19_1529)">
<path d="M17.6535 8.27667H12.2734C11.7812 8.27667 11.3822 8.67567 11.3822 9.16781V9.75478L12.8938 9.99689C13.7998 10.142 14.4188 10.9972 14.2737 11.9032C14.1616 12.6027 13.6178 13.1555 12.9205 13.2789C12.8254 13.2957 12.7282 13.3043 12.6315 13.3043C12.5435 13.3043 12.4546 13.2972 12.3673 13.2832L11.3822 13.1253V14.5479C11.3822 15.04 11.7812 15.439 12.2733 15.439H17.6534C18.1455 15.439 18.5445 15.04 18.5445 14.5479V9.16781C18.5446 8.67567 18.1456 8.27667 17.6535 8.27667Z" fill="black"/>
<path d="M12.7867 10.6651L9.41432 10.1249L8.30231 7.68539L9.77634 9.49753L10.508 9.61472V7.01981C10.508 6.25636 9.88907 5.63747 9.12562 5.63747H6.66046C5.89701 5.63747 5.27812 6.25636 5.27812 7.01981V14.1233L5.72549 17.7317L3.78473 22.4422C3.5474 23.0182 3.82195 23.6774 4.3979 23.9147C4.97399 24.1521 5.63315 23.8772 5.87038 23.3015L7.92407 18.3169C7.99809 18.1372 8.02448 17.9413 8.00052 17.7485L7.6476 14.9018H8.5236L8.84118 17.3335L7.71777 22.6383C7.58873 23.2477 7.97812 23.8463 8.58749 23.9753C9.19687 24.1044 9.79556 23.7149 9.92456 23.1056L11.0879 17.6123C11.1144 17.4875 11.1194 17.3591 11.1029 17.2326L10.5491 12.992L8.47223 12.6593C7.69162 12.5344 7.24143 11.8988 7.17337 11.5582L6.60909 8.73183L7.83698 11.4257C7.97418 11.7266 8.25276 11.9389 8.57924 11.9911L12.4744 12.615C12.957 12.6924 13.4179 12.405 13.5679 11.9509C13.7595 11.3703 13.3851 10.761 12.7867 10.6651Z" fill="black"/>
<path d="M7.90392 5.02444C9.03408 5.02444 9.95025 4.10826 9.95025 2.97811C9.95025 1.84795 9.03408 0.931781 7.90392 0.931781C6.77376 0.931781 5.85759 1.84795 5.85759 2.97811C5.85759 4.10826 6.77376 5.02444 7.90392 5.02444Z" fill="black"/>
<path d="M19.4786 3.62602H13.0524C12.5984 3.62602 12.2304 3.99403 12.2304 4.44797V6.68967C12.2304 7.14361 12.5984 7.51162 13.0524 7.51162H19.4786C19.9326 7.51162 20.3006 7.14361 20.3006 6.68967V4.44797C20.3006 3.99403 19.9326 3.62602 19.4786 3.62602Z" fill="black"/>
<path d="M16.561 0H14.4806C14.2624 0 14.0856 0.176859 14.0856 0.395062V2.47547C14.0856 2.69367 14.2625 2.87053 14.4806 2.87053H16.561C16.7792 2.87053 16.9561 2.69367 16.9561 2.47547V0.395062C16.9561 0.176859 16.7792 0 16.561 0Z" fill="black"/>
</g>
<defs>
<clipPath id="clip0_19_1529">
<rect width="24" height="24" fill="white"/>
</clipPath>
</defs>
</svg>
