<svg width="24" height="24" viewBox="0 0 24 24" fill="none" xmlns="http://www.w3.org/2000/svg">
<path d="M23.8228 16.719C23.9207 16.719 24 16.6397 24 16.5418V15.6097C24 15.5118 23.9207 15.4325 23.8228 15.4325H0.177257C0.0793959 15.4325 0 15.5118 0 15.6097V16.5418C0 16.6397 0.0793959 16.719 0.177257 16.719H1.73961V18.3951H0.177257C0.0793959 18.3951 0 18.4745 0 18.5724V19.5044C0 19.6023 0.0793959 19.6817 0.177257 19.6817H23.8228C23.9207 19.6817 24 19.6023 24 19.5044V18.5724C24 18.4745 23.9207 18.3951 23.8228 18.3951H22.2605V16.719H23.8228ZM4.601 16.719H10.5264V18.3951H4.601V16.719ZM19.3991 18.3951H13.3876V16.719H19.3991V18.3951Z" fill="black"/>
<path d="M21.7369 4.31844H18.4977V5.79062C18.4977 5.92586 18.3881 6.03552 18.2528 6.03552H17.4614C17.3262 6.03552 17.2165 5.92586 17.2165 5.79062V4.31844H13.9775C13.5717 4.31844 13.2428 4.64739 13.2428 5.05314V12.8126C13.2428 13.2183 13.5717 13.5473 13.9775 13.5473H21.7369C22.1426 13.5473 22.4716 13.2183 22.4716 12.8126V5.05314C22.4716 4.64739 22.1426 4.31844 21.7369 4.31844ZM18.5583 10.8781C18.5051 10.9369 18.4318 10.9667 18.3583 10.9667C18.2939 10.9667 18.2293 10.9437 18.1777 10.8971C18.1297 10.8536 17.9855 10.7233 17.9855 10.7233V11.9281C17.9855 12.0769 17.8649 12.1975 17.7162 12.1975C17.5675 12.1975 17.4468 12.0769 17.4468 11.9281V10.7233C17.4468 10.7233 17.3028 10.8536 17.2546 10.8971C17.2032 10.9438 17.1385 10.9667 17.074 10.9667C17.0005 10.9667 16.9274 10.9369 16.8742 10.8781C16.7744 10.7677 16.7829 10.5974 16.8932 10.4976C16.8932 10.4976 17.3061 10.1281 17.5077 9.94174C17.565 9.88879 17.6321 9.84275 17.7162 9.84275C17.8002 9.8428 17.8675 9.88879 17.9248 9.94174C18.1262 10.1281 18.5391 10.4976 18.5391 10.4976C18.6496 10.5974 18.6581 10.7677 18.5583 10.8781ZM21.0439 10.8781C20.9907 10.9369 20.9175 10.9667 20.8441 10.9667C20.7796 10.9667 20.7149 10.9438 20.6634 10.8971C20.6154 10.8537 20.4712 10.7233 20.4712 10.7233V11.9281C20.4712 12.0769 20.3506 12.1975 20.2018 12.1975C20.0532 12.1975 19.9326 12.0769 19.9326 11.9281V10.7233C19.9326 10.7233 19.7884 10.8536 19.7404 10.8971C19.6888 10.9438 19.6241 10.9667 19.5597 10.9667C19.4862 10.9667 19.413 10.9369 19.3598 10.8781C19.26 10.7677 19.2685 10.5974 19.3789 10.4976C19.3789 10.4976 19.7918 10.1281 19.9933 9.94174C20.0506 9.88879 20.1178 9.84275 20.2018 9.84275C20.2859 9.8428 20.3531 9.88879 20.4104 9.94174C20.6119 10.1281 21.0248 10.4976 21.0248 10.4976C21.1352 10.5974 21.1437 10.7677 21.0439 10.8781Z" fill="black"/>
<path d="M10.0226 4.31842H6.78347V5.7906C6.78347 5.92583 6.67386 6.0355 6.53858 6.0355H5.74716C5.61188 6.0355 5.50227 5.92583 5.50227 5.7906V4.31842H2.26315C1.8574 4.31842 1.52845 4.64737 1.52845 5.05311V12.8126C1.52845 13.2183 1.8574 13.5473 2.26315 13.5473H10.0226C10.4283 13.5473 10.7573 13.2183 10.7573 12.8126V5.05311C10.7573 4.64737 10.4283 4.31842 10.0226 4.31842ZM6.84396 10.8781C6.79077 10.9368 6.71755 10.9667 6.64408 10.9667C6.57962 10.9667 6.51497 10.9437 6.46344 10.8971C6.41539 10.8536 6.27125 10.7232 6.27125 10.7232V11.9281C6.27125 12.0769 6.15061 12.1975 6.00191 12.1975C5.85321 12.1975 5.73257 12.0769 5.73257 11.9281V10.7232C5.73257 10.7232 5.58847 10.8536 5.54037 10.8971C5.48885 10.9437 5.42419 10.9667 5.35974 10.9667C5.28627 10.9667 5.21304 10.9368 5.15985 10.8781C5.06008 10.7677 5.0686 10.5974 5.17895 10.4975C5.17895 10.4975 5.59185 10.128 5.79335 9.94172C5.85066 9.88877 5.91786 9.84273 6.00191 9.84273C6.08596 9.84278 6.15316 9.88877 6.21046 9.94172C6.41196 10.128 6.82486 10.4975 6.82486 10.4975C6.93526 10.5974 6.94374 10.7677 6.84396 10.8781ZM9.32958 10.8781C9.27639 10.9368 9.20321 10.9667 9.12974 10.9667C9.06534 10.9667 9.00063 10.9437 8.94911 10.8971C8.90111 10.8537 8.75691 10.7232 8.75691 10.7232V11.9281C8.75691 12.0769 8.63627 12.1975 8.48757 12.1975C8.33887 12.1975 8.21823 12.0769 8.21823 11.9281V10.7232C8.21823 10.7232 8.07414 10.8536 8.02604 10.8971C7.97451 10.9437 7.90986 10.9667 7.8454 10.9667C7.77193 10.9667 7.69871 10.9368 7.64552 10.8781C7.54574 10.7677 7.55427 10.5974 7.66462 10.4975C7.66462 10.4975 8.07752 10.128 8.27902 9.94172C8.33632 9.88877 8.40352 9.84273 8.48757 9.84273C8.57162 9.84278 8.63882 9.88877 8.69613 9.94172C8.89763 10.128 9.31053 10.4975 9.31053 10.4975C9.42093 10.5974 9.42945 10.7677 9.32958 10.8781Z" fill="black"/>
</svg>
