<svg width="24" height="24" viewBox="0 0 24 24" fill="none" xmlns="http://www.w3.org/2000/svg">
<path d="M23.8228 16.719C23.9207 16.719 24 16.6397 24 16.5418V15.6097C24 15.5118 23.9207 15.4325 23.8228 15.4325H0.177257C0.0793959 15.4325 0 15.5118 0 15.6097V16.5418C0 16.6397 0.0793959 16.719 0.177257 16.719H1.73961V18.3951H0.177257C0.0793959 18.3951 0 18.4745 0 18.5724V19.5044C0 19.6023 0.0793959 19.6817 0.177257 19.6817H23.8228C23.9207 19.6817 24 19.6023 24 19.5044V18.5724C24 18.4745 23.9207 18.3951 23.8228 18.3951H22.2605V16.719H23.8228ZM4.601 16.719H10.5264V18.3951H4.601V16.719ZM19.3991 18.3951H13.3876V16.719H19.3991V18.3951Z" fill="black"/>
<path d="M14.1429 6.0355H13.7472C13.6119 6.0355 13.5023 5.92583 13.5023 5.7906V4.31842H10.2631C9.8574 4.31842 9.52845 4.64737 9.52845 5.05311V12.8126C9.52845 13.2183 9.8574 13.5473 10.2631 13.5473H14.1429L14.1429 6.0355Z" fill="black"/>
</svg>
