<svg width="24" height="24" viewBox="0 0 24 24" fill="none" xmlns="http://www.w3.org/2000/svg">
<g clip-path="url(#clip0_19_3380)">
<path d="M16.6957 6.78258H8.86957C8.43752 6.78258 8.08694 7.13316 8.08694 7.56521V11.4782H17.4783V7.56516C17.4783 7.13311 17.1277 6.78258 16.6957 6.78258Z" fill="black"/>
<path d="M21.3914 20.8696H20.6087V13.8261C20.6087 13.3939 20.2583 13.0435 19.8261 13.0435H8.08694V16.4478C9.90776 17.0944 11.2174 18.8297 11.2174 20.8695C11.2174 21.419 11.1177 21.9443 10.9435 22.4347H21.3913C21.8234 22.4347 22.1739 22.0842 22.1739 21.6521C22.1739 21.2201 21.8234 20.8696 21.3914 20.8696Z" fill="black"/>
<path d="M6.52173 17.7391V3.91298C6.52173 3.70537 6.43919 3.50639 6.29242 3.35967L3.16201 0.229254C2.85634 -0.0764181 2.36105 -0.0764181 2.05533 0.229254C1.74966 0.534692 1.74966 1.03044 2.05533 1.33593L4.95653 4.23707V18.1602C4.02179 18.7024 3.39132 19.7134 3.39132 20.8696C3.39132 22.5958 4.79551 24 6.52178 24C8.24805 24 9.65224 22.5958 9.65224 20.8696C9.65219 19.1433 8.24796 17.7391 6.52173 17.7391ZM6.52173 22.4348C5.65862 22.4348 4.95653 21.7327 4.95653 20.8696C4.95653 20.0065 5.65862 19.3044 6.52173 19.3044C7.38485 19.3044 8.08694 20.0065 8.08694 20.8696C8.08694 21.7327 7.38485 22.4348 6.52173 22.4348Z" fill="black"/>
</g>
<defs>
<clipPath id="clip0_19_3380">
<rect width="24" height="24" fill="white"/>
</clipPath>
</defs>
</svg>
